<?xml version="1.0" encoding="UTF-8"?>
<svg width="190px" height="366px" viewBox="0 0 190 366" version="1.1" xmlns="http://www.w3.org/2000/svg" xmlns:xlink="http://www.w3.org/1999/xlink">
    <!-- Generator: Sketch 47.1 (45422) - http://www.bohemiancoding.com/sketch -->
    <title>ON BEING WHITE</title>
    <desc>Created with Sketch.</desc>
    <defs></defs>
    <g id="Page-1" stroke="none" stroke-width="1" fill="none" fill-rule="evenodd">
        <g id="Artboard-Copy" transform="translate(-134.000000, -644.000000)" fill="#FF4F27">
            <path d="M160.888,644.919 L168.11,652.141 L168.11,752.778 L160.888,760 L142.362,760 L135.14,752.778 L135.14,652.141 L142.362,644.919 L160.888,644.919 Z M153.666,746.341 L153.666,658.578 L149.584,658.578 L149.584,746.341 L153.666,746.341 Z M207.988,644.919 L193.544,644.919 L193.544,673.336 L188.834,644.919 L174.39,644.919 L174.39,760 L188.834,760 L188.834,730.955 L193.544,760 L207.988,760 L207.988,644.919 Z M168.11,819.06 L164.185,824.398 L168.11,829.265 L168.11,877.778 L160.888,885 L135.14,885 L135.14,769.919 L160.888,769.919 L168.11,777.141 L168.11,819.06 Z M153.666,817.176 L153.666,783.578 L149.584,783.578 L149.584,817.176 L153.666,817.176 Z M153.666,871.341 L153.666,831.463 L149.584,831.463 L149.584,871.341 L153.666,871.341 Z M174.39,769.919 L174.39,885 L200.452,885 L200.452,871.341 L188.834,871.341 L188.834,830.835 L200.452,830.835 L200.452,817.176 L188.834,817.176 L188.834,783.578 L200.452,783.578 L200.452,769.919 L174.39,769.919 Z M220.391,885 L220.391,769.919 L205.947,769.919 L205.947,885 L220.391,885 Z M260.269,769.919 L245.825,769.919 L245.825,798.336 L241.115,769.919 L226.671,769.919 L226.671,885 L241.115,885 L241.115,855.955 L245.825,885 L260.269,885 L260.269,769.919 Z M299.519,826.439 L283.034,826.439 L283.034,840.098 L285.075,840.098 L285.075,871.341 L280.993,871.341 L280.993,783.578 L285.075,783.578 L285.075,810.739 L299.519,810.739 L299.519,777.141 L292.297,769.919 L273.771,769.919 L266.549,777.141 L266.549,877.778 L273.771,885 L292.297,885 L299.519,877.778 L299.519,826.439 Z M172.035,894.919 L159.161,894.919 L153.823,967.61 L148.642,894.919 L134.198,894.919 L144.089,1010 L160.731,1010 L164.97,955.364 L169.052,1010 L185.694,1010 L195.742,894.919 L182.554,894.919 L177.216,967.61 L172.035,894.919 Z M220.234,894.919 L220.234,942.176 L215.524,942.176 L215.524,894.919 L201.08,894.919 L201.08,1010 L215.524,1010 L215.524,955.835 L220.234,955.835 L220.234,1010 L234.678,1010 L234.678,894.919 L220.234,894.919 Z M255.402,1010 L255.402,894.919 L240.958,894.919 L240.958,1010 L255.402,1010 Z M260.112,894.919 L260.112,908.578 L269.218,908.578 L269.218,1010 L283.662,1010 L283.662,908.578 L293.082,908.578 L293.082,894.919 L260.112,894.919 Z M297.792,894.919 L297.792,1010 L323.854,1010 L323.854,996.341 L312.236,996.341 L312.236,955.835 L323.854,955.835 L323.854,942.176 L312.236,942.176 L312.236,908.578 L323.854,908.578 L323.854,894.919 L297.792,894.919 Z" id="ON-BEING-WHITE"></path>
        </g>
    </g>
</svg>